<svg width="27" height="28" viewBox="0 0 27 28" fill="none" xmlns="http://www.w3.org/2000/svg">
<path d="M13.5 27.3334C11.6555 27.3334 9.92218 26.9831 8.29996 26.2827C6.67774 25.5822 5.26663 24.6325 4.06663 23.4334C2.86663 22.2334 1.91685 20.8222 1.21729 19.2C0.517737 17.5778 0.167515 15.8445 0.166626 14C0.166626 12.1556 0.516848 10.4222 1.21729 8.80002C1.91774 7.1778 2.86752 5.76669 4.06663 4.56669C5.26663 3.36669 6.67774 2.41691 8.29996 1.71735C9.92218 1.0178 11.6555 0.667576 13.5 0.666687C15.3444 0.666687 17.0777 1.01691 18.7 1.71735C20.3222 2.4178 21.7333 3.36758 22.9333 4.56669C24.1333 5.76669 25.0835 7.1778 25.784 8.80002C26.4844 10.4222 26.8342 12.1556 26.8333 14C26.8333 15.8445 26.4831 17.5778 25.7826 19.2C25.0822 20.8222 24.1324 22.2334 22.9333 23.4334C21.7333 24.6334 20.3222 25.5836 18.7 26.284C17.0777 26.9845 15.3444 27.3342 13.5 27.3334ZM13.7666 15.3334L12.5666 16.5334C12.3222 16.7778 12.2 17.0889 12.2 17.4667C12.2 17.8445 12.3222 18.1556 12.5666 18.4C12.8111 18.6445 13.1222 18.7667 13.5 18.7667C13.8777 18.7667 14.1888 18.6445 14.4333 18.4L17.9 14.9334C18.1666 14.6667 18.3 14.3556 18.3 14C18.3 13.6445 18.1666 13.3334 17.9 13.0667L14.4333 9.60002C14.1888 9.35558 13.8777 9.23335 13.5 9.23335C13.1222 9.23335 12.8111 9.35558 12.5666 9.60002C12.3222 9.84447 12.2 10.1556 12.2 10.5334C12.2 10.9111 12.3222 11.2222 12.5666 11.4667L13.7666 12.6667H9.49996C9.12218 12.6667 8.80529 12.7947 8.54929 13.0507C8.29329 13.3067 8.16574 13.6231 8.16663 14C8.16663 14.3778 8.29463 14.6947 8.55063 14.9507C8.80663 15.2067 9.12307 15.3342 9.49996 15.3334H13.7666Z" fill="white"/>
</svg>
